<svg width="20" height="20" viewBox="0 0 20 20" fill="none" xmlns="http://www.w3.org/2000/svg">
<path fill-rule="evenodd" clip-rule="evenodd" d="M3.42617 5.44976C3.56499 5.18263 3.84423 5.00016 4.16609 5.00016H15.8328C16.1546 5.00016 16.4339 5.18264 16.5727 5.44978L9.99944 9.83194L3.42617 5.44976ZM1.66614 5.81857C1.66599 5.82705 1.66598 5.83553 1.66609 5.844V14.1668C1.66609 15.5475 2.78538 16.6668 4.16609 16.6668H15.8328C17.2135 16.6668 18.3328 15.5475 18.3328 14.1668V5.84571C18.3329 5.83598 18.3329 5.82623 18.3327 5.81649C18.3236 4.4436 17.2078 3.3335 15.8328 3.3335H4.16609C2.79036 3.3335 1.67417 4.44473 1.66614 5.81857ZM16.6661 7.39059V14.1668C16.6661 14.6271 16.293 15.0002 15.8328 15.0002H4.16609C3.70585 15.0002 3.33276 14.6271 3.33276 14.1668V7.39057L9.53719 11.5269C9.8171 11.7135 10.1818 11.7135 10.4617 11.5269L16.6661 7.39059Z" fill="black" fill-opacity="0.3"/>
</svg>
