<svg width="24" height="24" viewBox="0 0 24 24" fill="none" xmlns="http://www.w3.org/2000/svg">
<path d="M18.9194 13C18.4194 13 18.0094 13.37 17.9394 13.86C17.8186 14.6927 17.5243 15.4909 17.0753 16.2026C16.6263 16.9143 16.0328 17.5237 15.3333 17.9913C14.6337 18.459 13.8437 18.7744 13.0144 18.9172C12.1851 19.0599 11.3351 19.0268 10.5194 18.82C8.26939 18.28 6.60938 16.55 6.12938 14.29C5.93896 13.4129 5.94725 12.5043 6.15366 11.6309C6.36007 10.7574 6.75936 9.94123 7.32225 9.24218C7.88514 8.54312 8.59735 7.97892 9.40667 7.59093C10.216 7.20295 11.1019 7.00102 11.9994 6.99997V9.78997C11.9994 10.24 12.5394 10.46 12.8494 10.14L16.6394 6.34997C16.8394 6.14997 16.8394 5.83997 16.6394 5.63997L12.8494 1.84997C12.7789 1.78087 12.6895 1.73418 12.5925 1.71579C12.4955 1.69739 12.3953 1.70812 12.3044 1.74662C12.2135 1.78512 12.136 1.84967 12.0817 1.93212C12.0275 2.01458 11.9988 2.11125 11.9994 2.20997V4.99997C7.05938 4.99997 3.15938 9.47997 4.15938 14.6C4.75938 17.71 7.05938 20.1 10.1494 20.79C14.9794 21.87 19.2994 18.59 19.9194 14.12C20.0094 13.53 19.5194 13 18.9194 13ZM10.5394 15.22C10.4794 15.27 10.4194 15.31 10.3394 15.34C10.2594 15.37 10.1694 15.38 10.0694 15.38C9.90637 15.3847 9.74695 15.3316 9.61938 15.23C9.55938 15.18 9.51938 15.13 9.48938 15.06C9.45938 14.99 9.43938 14.92 9.43938 14.84H8.58939C8.58939 15.05 8.62938 15.23 8.70938 15.39C8.78938 15.55 8.89938 15.67 9.03938 15.77C9.17938 15.87 9.32938 15.95 9.49938 16C9.66938 16.05 9.84938 16.07 10.0294 16.07C10.2394 16.07 10.4394 16.04 10.6294 15.99C10.8194 15.94 10.9694 15.85 11.1094 15.75C11.2494 15.65 11.3494 15.51 11.4294 15.36C11.5094 15.21 11.5494 15.03 11.5494 14.83C11.5494 14.6 11.4894 14.39 11.3694 14.22C11.2494 14.05 11.0694 13.92 10.8294 13.83C10.9294 13.78 11.0294 13.73 11.1094 13.66C11.1894 13.59 11.2594 13.52 11.3094 13.44C11.3594 13.36 11.4094 13.28 11.4394 13.19C11.4694 13.1 11.4794 13.01 11.4794 12.92C11.4794 12.72 11.4394 12.55 11.3694 12.39C11.2994 12.23 11.1994 12.11 11.0694 12.01C10.9394 11.91 10.7894 11.83 10.6094 11.78C10.4294 11.73 10.2394 11.7 10.0194 11.7C9.82939 11.7 9.63938 11.73 9.47938 11.78C9.31938 11.83 9.15938 11.91 9.03938 12.01C8.91938 12.11 8.80938 12.23 8.73938 12.38C8.66938 12.53 8.62938 12.68 8.62938 12.86H9.47938C9.48008 12.7927 9.49569 12.7264 9.52508 12.6659C9.55448 12.6054 9.59693 12.5521 9.64938 12.51C9.69938 12.47 9.75938 12.44 9.82938 12.41C9.89938 12.38 9.96939 12.38 10.0494 12.38C10.1494 12.38 10.2294 12.39 10.2994 12.42C10.3694 12.45 10.4294 12.48 10.4794 12.53C10.5294 12.58 10.5594 12.64 10.5894 12.7C10.6194 12.76 10.6294 12.84 10.6294 12.92C10.6294 13.1 10.5794 13.24 10.4694 13.35C10.3594 13.46 10.2094 13.51 9.98938 13.51H9.55939V14.17H10.0094C10.1194 14.17 10.2094 14.18 10.2994 14.21C10.3894 14.24 10.4594 14.27 10.5194 14.32C10.5794 14.37 10.6294 14.44 10.6594 14.52C10.6894 14.6 10.7094 14.7 10.7094 14.81C10.7094 14.9 10.6994 14.98 10.6694 15.05C10.6394 15.12 10.5894 15.16 10.5394 15.22ZM14.4394 11.78C14.2594 11.71 14.0694 11.68 13.8494 11.68C13.6294 11.68 13.4394 11.71 13.2594 11.78C13.0794 11.85 12.9294 11.96 12.8094 12.11C12.6894 12.26 12.5794 12.45 12.5194 12.68C12.4594 12.91 12.4194 13.18 12.4194 13.5V14.24C12.4194 14.56 12.4594 14.84 12.5294 15.06C12.5994 15.28 12.6994 15.48 12.8294 15.63C12.9594 15.78 13.1094 15.89 13.2894 15.96C13.4694 16.03 13.6594 16.06 13.8794 16.06C14.0994 16.06 14.2894 16.03 14.4694 15.96C14.6494 15.89 14.7994 15.78 14.9194 15.63C15.0394 15.48 15.1394 15.29 15.2094 15.06C15.2794 14.83 15.3094 14.56 15.3094 14.24V13.5C15.3094 13.18 15.2694 12.9 15.1994 12.68C15.1294 12.46 15.0294 12.26 14.8994 12.11C14.7694 11.96 14.6194 11.85 14.4394 11.78ZM14.4494 14.35C14.4494 14.54 14.4394 14.7 14.4094 14.83C14.3794 14.96 14.3494 15.07 14.2994 15.15C14.2494 15.23 14.1894 15.29 14.1094 15.32C14.0294 15.35 13.9494 15.37 13.8594 15.37C13.7694 15.37 13.6794 15.35 13.6094 15.32C13.5394 15.29 13.4694 15.23 13.4194 15.15C13.3694 15.07 13.3294 14.96 13.2994 14.83C13.2694 14.7 13.2594 14.54 13.2594 14.35V13.38C13.2594 13.19 13.2694 13.03 13.2994 12.9C13.3294 12.77 13.3594 12.67 13.4194 12.59C13.4794 12.51 13.5294 12.45 13.6094 12.42C13.6894 12.39 13.7694 12.37 13.8594 12.37C13.9494 12.37 14.0394 12.39 14.1094 12.42C14.1794 12.45 14.2494 12.51 14.2994 12.59C14.3494 12.67 14.3894 12.77 14.4194 12.9C14.4494 13.03 14.4594 13.19 14.4594 13.38V14.35H14.4494Z" fill="white"/>
</svg>
