<svg width="20" height="20" viewBox="0 0 20 20" fill="none" xmlns="http://www.w3.org/2000/svg">
<path fill-rule="evenodd" clip-rule="evenodd" d="M5.83398 9.99967C5.37375 9.99967 5.00065 10.3728 5.00065 10.833V15.833C5.00065 16.2932 5.37375 16.6663 5.83398 16.6663H14.1673C14.6276 16.6663 15.0006 16.2932 15.0006 15.833V10.833C15.0006 10.3728 14.6276 9.99967 14.1673 9.99967H5.83398ZM3.33398 10.833C3.33398 9.4523 4.45327 8.33301 5.83398 8.33301H14.1673C15.548 8.33301 16.6673 9.4523 16.6673 10.833V15.833C16.6673 17.2137 15.548 18.333 14.1673 18.333H5.83398C4.45327 18.333 3.33398 17.2137 3.33398 15.833V10.833Z" fill="black" fill-opacity="0.3"/>
<path fill-rule="evenodd" clip-rule="evenodd" d="M8.33398 13.3332C8.33398 12.4127 9.08018 11.6665 10.0007 11.6665C10.9211 11.6665 11.6673 12.4127 11.6673 13.3332C11.6673 14.2536 10.9211 14.9998 10.0007 14.9998C9.08018 14.9998 8.33398 14.2536 8.33398 13.3332Z" fill="black" fill-opacity="0.3"/>
<path fill-rule="evenodd" clip-rule="evenodd" d="M10.0007 3.33317C9.33761 3.33317 8.70172 3.59656 8.23288 4.0654C7.76404 4.53424 7.50065 5.17013 7.50065 5.83317V9.1665C7.50065 9.62674 7.12755 9.99984 6.66732 9.99984C6.20708 9.99984 5.83398 9.62674 5.83398 9.1665V5.83317C5.83398 4.7281 6.27297 3.66829 7.05437 2.88689C7.83577 2.10549 8.89558 1.6665 10.0007 1.6665C11.1057 1.6665 12.1655 2.10549 12.9469 2.88689C13.7283 3.66829 14.1673 4.7281 14.1673 5.83317V9.1665C14.1673 9.62674 13.7942 9.99984 13.334 9.99984C12.8737 9.99984 12.5007 9.62674 12.5007 9.1665V5.83317C12.5007 5.17013 12.2373 4.53424 11.7684 4.0654C11.2996 3.59656 10.6637 3.33317 10.0007 3.33317Z" fill="black" fill-opacity="0.3"/>
</svg>
