<svg width="24" height="24" viewBox="0 0 24 24" fill="none" xmlns="http://www.w3.org/2000/svg">
<path d="M5 4.99995V18.9999C5.00229 19.3263 5.08438 19.647 5.23913 19.9343C5.39387 20.2216 5.61656 20.4667 5.88776 20.6482C6.15897 20.8296 6.47046 20.942 6.79506 20.9754C7.11965 21.0088 7.4475 20.9623 7.75 20.8399L20 13.7399C20.3126 13.567 20.5732 13.3135 20.7546 13.0057C20.9361 12.6979 21.0318 12.3472 21.0318 11.9899C21.0318 11.6327 20.9361 11.2819 20.7546 10.9742C20.5732 10.6664 20.3126 10.4129 20 10.2399L7.75 3.13995C7.45442 3.01989 7.13442 2.97228 6.81669 3.0011C6.49897 3.02991 6.19275 3.13432 5.9236 3.3056C5.65444 3.47688 5.43017 3.71006 5.2695 3.98567C5.10883 4.26129 5.01643 4.57134 5 4.88995" fill="white"/>
</svg>
