<svg width="24" height="24" viewBox="0 0 24 24" fill="none" xmlns="http://www.w3.org/2000/svg">
<path fill-rule="evenodd" clip-rule="evenodd" d="M20 12C20 11.4477 19.5523 11 19 11H5C4.44771 11 4 11.4477 4 12C4 12.5523 4.44771 13 5 13H19C19.5523 13 20 12.5523 20 12Z" fill="white"/>
<path fill-rule="evenodd" clip-rule="evenodd" d="M4.29289 11.2929C3.90237 11.6834 3.90237 12.3166 4.29289 12.7071L8.29289 16.7071C8.68342 17.0976 9.31658 17.0976 9.70711 16.7071C10.0976 16.3166 10.0976 15.6834 9.70711 15.2929L5.70711 11.2929C5.31658 10.9024 4.68342 10.9024 4.29289 11.2929Z" fill="white"/>
<path fill-rule="evenodd" clip-rule="evenodd" d="M9.70711 7.29289C9.31658 6.90237 8.68342 6.90237 8.29289 7.29289L4.29289 11.2929C3.90237 11.6834 3.90237 12.3166 4.29289 12.7071C4.68342 13.0976 5.31658 13.0976 5.70711 12.7071L9.70711 8.70711C10.0976 8.31658 10.0976 7.68342 9.70711 7.29289Z" fill="white"/>
</svg>
