<svg width="20" height="20" viewBox="0 0 20 20" fill="none" xmlns="http://www.w3.org/2000/svg">
<path fill-rule="evenodd" clip-rule="evenodd" d="M9.9987 3.33317C8.61799 3.33317 7.4987 4.45246 7.4987 5.83317C7.4987 7.21388 8.61799 8.33317 9.9987 8.33317C11.3794 8.33317 12.4987 7.21388 12.4987 5.83317C12.4987 4.45246 11.3794 3.33317 9.9987 3.33317ZM5.83203 5.83317C5.83203 3.53198 7.69751 1.6665 9.9987 1.6665C12.2999 1.6665 14.1654 3.53198 14.1654 5.83317C14.1654 8.13436 12.2999 9.99984 9.9987 9.99984C7.69751 9.99984 5.83203 8.13436 5.83203 5.83317Z" fill="black" fill-opacity="0.3"/>
<path fill-rule="evenodd" clip-rule="evenodd" d="M8.33268 13.3332C7.66964 13.3332 7.03376 13.5966 6.56492 14.0654C6.09607 14.5342 5.83268 15.1701 5.83268 15.8332V17.4998C5.83268 17.9601 5.45959 18.3332 4.99935 18.3332C4.53911 18.3332 4.16602 17.9601 4.16602 17.4998V15.8332C4.16602 14.7281 4.605 13.6683 5.3864 12.8869C6.16781 12.1055 7.22761 11.6665 8.33268 11.6665H11.666C12.7711 11.6665 13.8309 12.1055 14.6123 12.8869C15.3937 13.6683 15.8327 14.7281 15.8327 15.8332V17.4998C15.8327 17.9601 15.4596 18.3332 14.9994 18.3332C14.5391 18.3332 14.166 17.9601 14.166 17.4998V15.8332C14.166 15.1701 13.9026 14.5342 13.4338 14.0654C12.9649 13.5966 12.3291 13.3332 11.666 13.3332H8.33268Z" fill="black" fill-opacity="0.3"/>
</svg>
